HIERARCHY
ROOT Hips
{
	OFFSET	0.00	0.00	0.00
	CHANNELS 6 Xposition Yposition Zposition Zrotation Xrotation Yrotation
	JOINT LeftUpperLeg
	{
		OFFSET	 0.091245	-0.066564	-0.000554
		CHANNELS 3 Zrotation Xrotation Yrotation
		JOINT LeftLowerLeg
		{
			OFFSET	 0.002447	-0.463436	-0.005172
			CHANNELS 3 Zrotation Xrotation Yrotation
			JOINT LeftFoot
			{
				OFFSET	-0.002447	-0.420480	-0.020576
				CHANNELS 3 Zrotation Xrotation Yrotation
				JOINT LeftToes
				{
					OFFSET	 0.003734	-0.104922	 0.126407
					CHANNELS 3 Zrotation Xrotation Yrotation
					End Site
					{
						OFFSET	 0.000000	 0.000000	 0.059955
					}
				}
			}
		}
	}
	JOINT RightUpperLeg
	{
		OFFSET	-0.091245	-0.066564	-0.000554
		CHANNELS 3 Zrotation Xrotation Yrotation
		JOINT RightLowerLeg
		{
			OFFSET	-0.002447	-0.463436	-0.005146
			CHANNELS 3 Zrotation Xrotation Yrotation
			JOINT RightFoot
			{
				OFFSET	 0.002447	-0.420479	-0.020602
				CHANNELS 3 Zrotation Xrotation Yrotation
				JOINT RightToes
				{
					OFFSET	-0.003734	-0.104922	 0.126407
					CHANNELS 3 Zrotation Xrotation Yrotation
					End Site
					{
						OFFSET	-0.000000	 0.000000	 0.059955
					}
				}
			}
		}
	}
	JOINT Spine
	{
		OFFSET	 0.000000	 0.099235	-0.012273
		CHANNELS 3 Zrotation Xrotation Yrotation
		JOINT Chest
		{
			OFFSET	-0.000001	 0.116455	-0.014223
			CHANNELS 3 Zrotation Xrotation Yrotation
			JOINT UpperChest
			{
				OFFSET	 0.000001	 0.133602	-0.016265
				CHANNELS 3 Zrotation Xrotation Yrotation
				JOINT LeftShoulder
				{
					OFFSET	 0.061058	 0.091105	 0.007056
					CHANNELS 3 Zrotation Xrotation Yrotation
					JOINT LeftUpperArm
					{
						OFFSET	 0.133942	-0.002659	-0.026009
						CHANNELS 3 Zrotation Xrotation Yrotation
						JOINT LeftLowerArm
						{
							OFFSET	 0.274047	 0.000000	 0.000000
							CHANNELS 3 Zrotation Xrotation Yrotation
							JOINT LeftHand
							{
								OFFSET	 0.276145	 0.000000	 0.000000
								CHANNELS 3 Zrotation Xrotation Yrotation
								End Site
								{
									OFFSET	 0.165687	 0.000000	 0.000000
								}
							}
						}
					}
				}
				JOINT Neck
				{
					OFFSET	 0.000000	 0.150325	 0.007929
					CHANNELS 3 Zrotation Xrotation Yrotation
					JOINT Head
					{
						OFFSET	 0.000000	 0.103218	 0.031424
						CHANNELS 3 Zrotation Xrotation Yrotation
						End Site
						{
							OFFSET	 0.000000	 0.061931	 0.018855
						}
					}
				}
				JOINT RightShoulder
				{
					OFFSET	-0.061057	 0.091105	 0.007056
					CHANNELS 3 Zrotation Xrotation Yrotation
					JOINT RightUpperArm
					{
						OFFSET	-0.133943	-0.002660	-0.026009
						CHANNELS 3 Zrotation Xrotation Yrotation
						JOINT RightLowerArm
						{
							OFFSET	-0.274047	 0.000000	 0.000000
							CHANNELS 3 Zrotation Xrotation Yrotation
							JOINT RightHand
							{
								OFFSET	-0.276145	 0.000000	 0.000000
								CHANNELS 3 Zrotation Xrotation Yrotation
								End Site
								{
									OFFSET	-0.165687	 0.000000	 0.000000
								}
							}
						}
					}
				}
			}
		}
	}
}
MOTION
Frames:    11
Frame Time: 0.03333334
-0.099550	 1.045690	-0.652990	 7.493419	 8.714215	-15.279900	 12.553870	 2.981002	 26.432710	-0.012763	 0.471206	-0.000933	-6.783156	 17.962800	 2.569286	-0.000100	-7.519639	 1.264283	-2.013169	-19.020730	-13.498960	-0.632022	 24.390610	 0.124726	-6.576311	-14.804550	-12.835160	-0.000101	 0.005122	 0.000100	 0.636361	 2.111989	-3.125957	 0.000000	 0.000000	 0.000000	 1.391043	 4.195066	-6.293971	-4.130371	-1.551086	 14.507930	-75.544400	 5.342327	-31.615220	-20.305220	 0.220065	-33.686210	 24.216550	 14.406870	-30.081570	 3.928376	-5.842391	 11.474000	 4.252347	-5.895792	 12.029010	-0.751804	 3.077273	-12.710940	 85.500590	 1.450747	 19.065410	-0.551459	 10.506720	 22.929460	-16.629940	 2.052097	-13.439480
-0.104460	 1.045530	-0.651840	 7.721333	 8.839762	-16.609810	 12.004420	 3.348027	 25.416720	-0.077856	 2.597049	 0.000590	-6.379577	 16.971950	 2.985432	-0.000144	-11.295580	 2.154258	-1.428990	-18.952450	-12.742230	-0.747623	 23.891630	 0.155254	-7.144165	-14.817020	-12.494240	 0.000253	 0.192039	-0.000007	 0.476108	 2.199363	-3.294429	 0.000000	 0.000000	 0.000000	 1.082894	 4.374923	-6.629513	-4.266339	-1.392060	 13.895960	-74.857060	 5.436283	-32.388630	-17.955850	-1.142242	-30.078970	 25.664490	 12.984490	-31.413770	 4.127526	-6.023439	 12.415690	 4.493290	-6.141187	 12.786720	-0.577612	 3.071216	-13.274910	 85.558420	 1.978182	 18.173150	-0.028447	 11.164100	 23.842780	-16.347710	 1.237800	-12.842370
-0.110050	 1.045230	-0.650530	 8.101003	 9.113850	-18.522730	 10.945590	 4.221717	 25.099750	-0.087174	 2.211097	 0.000456	-7.690773	 16.948970	 7.086412	 0.000645	-12.141340	 2.355968	-0.757521	-19.141780	-10.979480	-0.620503	 23.505060	 0.122496	-7.947202	-14.804940	-12.535830	-0.000467	 0.345094	 0.000213	 0.265921	 2.270989	-3.476503	 0.000000	 0.000000	 0.000000	 0.671857	 4.532907	-6.988171	-4.274987	-1.215405	 13.037270	-73.926970	 6.960315	-32.845510	-14.094760	-5.171269	-26.947460	 25.992180	 14.649620	-30.306880	 4.292599	-6.312030	 13.242720	 4.763410	-6.388656	 13.641550	-0.754225	 2.803540	-13.633370	 85.900790	 2.066080	 17.966270	 0.574550	 12.864020	 24.536930	-16.900670	 0.871161	-11.352160
-0.110050	 1.045230	-0.650530	 8.101003	 9.113850	-18.522730	 10.945590	 4.221717	 25.099750	-0.087174	 2.211097	 0.000456	-7.690773	 16.948970	 7.086412	 0.000645	-12.141340	 2.355968	-0.757521	-19.141780	-10.979480	-0.620503	 23.505060	 0.122496	-7.947202	-14.804940	-12.535830	-0.000467	 0.345094	 0.000213	 0.265921	 2.270989	-3.476503	 0.000000	 0.000000	 0.000000	 0.671857	 4.532907	-6.988171	-4.274987	-1.215405	 13.037270	-73.926970	 6.960315	-32.845510	-14.094760	-5.171269	-26.947460	 25.992180	 14.649620	-30.306880	 4.292599	-6.312030	 13.242720	 4.763410	-6.388656	 13.641550	-0.754225	 2.803540	-13.633370	 85.900790	 2.066080	 17.966270	 0.574550	 12.864020	 24.536930	-16.900670	 0.871161	-11.352160
-0.115070	 1.044340	-0.648880	 8.245788	 9.272001	-20.091300	 10.516370	 5.394915	 27.858650	-0.002758	 0.082052	-0.000428	-7.537358	 18.613350	 7.399108	-0.000218	-11.477850	 2.274491	-0.242596	-19.313000	-10.063790	-0.477382	 23.630460	 0.087992	-8.005663	-15.084070	-12.061610	-0.001206	 0.347646	 0.000045	 0.154066	 2.384207	-3.638383	 0.000000	 0.000000	 0.000000	 0.462768	 4.763164	-7.308676	-4.238472	-0.935854	 12.469510	-73.372010	 6.766961	-32.905800	-10.461420	-5.318679	-23.762110	 26.374710	 21.774140	-23.206300	 4.718049	-6.360456	 13.929630	 4.992806	-6.532784	 14.285090	-0.721117	 2.457150	-13.835080	 86.006480	 1.707036	 17.141620	 1.088603	 14.512960	 26.538420	-17.475330	 1.179429	-9.654237
-0.118990	 1.042190	-0.647010	 8.322378	 9.440355	-21.291890	 10.428770	 5.606467	 29.661250	-0.001731	 0.077752	-0.001297	-7.024515	 19.344530	 7.722181	 0.000368	-13.108050	 2.913183	 0.108989	-19.638170	-10.661730	-0.818361	 24.175920	 0.164257	-7.889266	-15.729660	-10.424540	 0.000276	 0.120788	-0.000537	 0.130127	 2.440333	-3.713235	 0.000000	 0.000000	 0.000000	 0.420931	 4.877951	-7.457601	-4.378208	-0.632449	 12.274240	-72.903040	 6.161662	-32.797440	-9.030717	-3.546010	-20.897510	 22.540000	 28.837400	-11.472520	 5.003062	-6.418263	 14.551420	 5.077857	-6.511771	 14.713890	-0.646920	 1.991945	-14.116760	 85.972370	 1.413801	 16.468980	 1.915763	 15.305830	 28.813840	-18.967050	 0.849897	-8.816431
-0.123340	 1.041450	-0.644330	 8.268769	 9.420593	-21.834840	 10.507340	 5.881190	 28.365800	-0.002680	 0.082976	 0.000154	-6.145337	 19.823450	 9.219381	-0.000858	-13.557860	 3.283177	 0.512541	-19.405980	-9.941282	-0.671272	 24.238640	 0.132505	-8.304255	-15.965400	-10.667690	 0.000734	 0.286423	 0.000125	 0.142625	 2.499617	-3.767143	 0.000000	 0.000000	 0.000000	 0.449484	 4.997640	-7.568672	-4.719338	-0.298405	 12.233820	-72.034260	 6.232107	-31.833800	-10.277370	-3.849903	-17.735250	 17.895280	 32.699710	-4.410806	 5.167608	-6.298460	 14.832340	 5.167351	-6.410291	 14.951160	-0.622160	 1.834285	-14.705420	 85.751720	 0.647559	 16.035400	 2.988618	 16.634540	 31.329070	-20.945320	 0.862652	-7.555225
-0.126540	 1.041520	-0.642470	 8.342155	 9.447240	-22.054190	 10.637850	 5.934942	 27.895590	-0.003134	 0.082960	 0.000004	-5.540306	 20.837510	 9.075563	 0.000495	-14.535870	 3.643084	 0.709283	-19.198370	-9.730905	-0.725745	 24.043270	 0.142960	-8.407162	-16.005710	-10.631120	-0.000160	 0.284351	 0.000117	 0.114115	 2.483256	-3.744917	 0.000000	 0.000000	 0.000000	 0.392353	 4.965354	-7.521506	-4.758724	 0.314989	 11.946220	-71.439240	 6.384854	-30.666520	-10.103860	-1.896894	-16.935300	 16.207210	 34.795510	-4.093393	 5.282799	-6.356075	 14.880520	 5.331089	-6.322454	 14.833740	-0.697582	 1.610140	-14.883850	 85.481220	 0.168488	 15.827060	 3.531394	 17.789480	 33.715780	-22.493210	 1.016946	-6.270542
-0.130330	 1.041900	-0.639590	 8.552014	 9.294319	-21.980940	 10.698980	 6.121469	 27.757330	-0.002372	 0.082126	-0.000002	-5.530008	 21.912120	 8.195150	 0.000340	-15.159720	 3.684272	 0.687913	-18.694800	-9.512476	-0.756173	 23.667830	 0.146686	-8.541259	-16.013760	-10.940150	-0.000312	 0.167923	 0.000360	 0.084121	 2.470191	-3.667316	 0.000000	 0.000000	 0.000000	 0.327226	 4.939546	-7.365263	-4.525745	 1.854766	 11.494000	-71.189200	 6.434213	-29.125720	-9.719101	 3.012815	-17.190520	 15.491660	 35.841070	-4.648600	 5.191823	-6.289582	 14.763670	 5.237349	-6.268281	 14.609470	-1.205122	 1.379397	-15.034630	 85.146160	-0.132887	 15.856060	 4.413175	 18.801720	 36.091720	-24.752890	 0.365212	-3.992672
-0.133930	 1.042590	-0.637760	 8.750348	 9.241527	-21.637470	 10.903650	 6.081964	 26.610320	-0.002355	 0.077889	-0.000246	-5.918364	 23.154440	 7.876636	 0.000800	-16.186790	 3.795881	 0.776216	-18.221870	-8.880760	-0.763714	 23.062350	 0.144888	-8.899987	-15.861920	-11.812800	-0.000084	 0.318737	-0.000586	 0.083753	 2.478312	-3.539586	 0.000000	 0.000000	 0.000000	 0.322474	 4.957317	-7.109743	-4.746127	 2.252357	 12.311920	-71.003310	 6.539816	-26.954360	-11.508030	 6.001421	-17.272430	 15.422260	 36.888170	-3.987597	 5.182280	-6.264194	 14.537290	 5.162134	-6.303133	 14.282650	-1.333606	 1.164412	-15.003340	 84.591630	-0.566157	 15.662830	 5.232153	 19.666720	 39.161140	-26.469180	-0.724574	-2.194903
-0.136100	 1.043130	-0.636800	 8.873393	 9.266669	-21.094690	 11.096470	 5.840199	 25.466200	-0.002447	 0.082850	-0.000453	-5.578535	 24.326720	 7.378439	-0.001235	-17.459600	 4.142184	 0.832400	-17.919730	-8.319716	-0.752435	 22.579320	 0.140294	-9.126219	-15.709400	-12.783600	 0.000020	 0.343559	 0.000517	 0.166766	 2.469073	-3.474468	 0.000000	 0.000000	 0.000000	 0.485307	 4.934755	-6.981986	-4.907684	 2.373668	 12.873010	-71.475190	 5.735522	-25.079240	-13.227620	 7.414253	-17.104050	 15.987380	 38.182680	-4.128091	 5.116875	-6.390708	 14.229500	 4.935936	-6.399848	 14.088370	-1.405135	 0.971863	-15.018950	 84.049950	-0.707459	 15.806970	 6.019058	 19.902210	 41.419020	-27.536630	-1.552848	-1.065181
